<svg width="3369" height="1041" xmlns="http://www.w3.org/2000/svg" xmlns:xlink="http://www.w3.org/1999/xlink" xml:space="preserve" overflow="hidden"><defs><clipPath id="clip0"><rect x="476" y="728" width="3369" height="1041"/></clipPath><clipPath id="clip1"><rect x="476" y="728" width="3369" height="1041"/></clipPath></defs><g clip-path="url(#clip0)" transform="translate(-476 -728)"><g clip-path="url(#clip1)"><path d="M1404 882.169C1404 802.547 1468.55 738 1548.17 738L2758.83 738C2838.45 738 2903 802.547 2903 882.169L2903 1458.83C2903 1538.45 2838.45 1603 2758.83 1603L1548.17 1603C1468.55 1603 1404 1538.45 1404 1458.83Z" stroke="#000000" stroke-width="13.75" stroke-linecap="butt" stroke-linejoin="miter" stroke-miterlimit="8" stroke-opacity="1" fill="none" fill-rule="evenodd"/><text fill="#000000" fill-opacity="1" font-family="Cambria Math,Cambria Math_MSFontService,sans-serif" font-style="normal" font-variant="normal" font-weight="400" font-stretch="normal" font-size="183" text-anchor="start" direction="ltr" writing-mode="lr-tb" unicode-bidi="normal" text-decoration="none" transform="matrix(1 0 0 1 539.142 1238)">𝐸</text><path d="M-25.7344-103.206C-28.5937-103.206-30.9766-104.203-32.8828-106.199-34.7891-108.195-35.7422-110.711-35.7422-113.75-35.7422-116.788-34.7891-119.304-32.8828-121.3-30.9766-123.296-28.5937-124.293-25.7344-124.293-22.9346-124.293-20.5815-123.296-18.6753-121.3-16.769-119.304-15.8159-116.788-15.8159-113.75-15.8159-110.711-16.769-108.195-18.6753-106.199-20.5815-104.203-22.9346-103.206-25.7344-103.206Z" fill="#000000" fill-rule="nonzero" fill-opacity="1" transform="matrix(1 0 0 1 635.46 1203)"/><text fill="#000000" fill-opacity="0" font-family="Arial,Arial_MSFontService,sans-serif" font-size="21.0879" direction="ltr" writing-mode="lr-tb" x="-35.7422" y="-105.842">ሶ</text><text fill="#000000" fill-opacity="1" font-family="Cambria Math,Cambria Math_MSFontService,sans-serif" font-style="normal" font-variant="normal" font-weight="400" font-stretch="normal" font-size="134" text-anchor="start" direction="ltr" writing-mode="lr-tb" unicode-bidi="normal" text-decoration="none" transform="matrix(1 0 0 1 643.871 1275)">𝑖𝑛</text><path d="M900 1164.13 1390.31 1164.13 1390.31 1177.88 900 1177.88ZM1352.52 1141 1403.95 1171 1352.52 1201C1349.24 1202.91 1345.03 1201.81 1343.12 1198.53 1341.2 1195.25 1342.31 1191.04 1345.59 1189.12L1386.84 1165.06 1386.84 1176.94 1345.59 1152.88 1345.59 1152.88C1342.31 1150.96 1341.2 1146.75 1343.12 1143.47 1345.03 1140.19 1349.24 1139.09 1352.52 1141Z" fill="#000000" fill-rule="nonzero" fill-opacity="1"/><path d="M2903 1164.13 3393.31 1164.13 3393.31 1177.88 2903 1177.88ZM3355.52 1141 3406.95 1171 3355.52 1201C3352.24 1202.91 3348.03 1201.81 3346.12 1198.53 3344.2 1195.25 3345.31 1191.04 3348.59 1189.12L3389.84 1165.06 3389.84 1176.94 3348.59 1152.88 3348.59 1152.88C3345.31 1150.96 3344.2 1146.75 3346.12 1143.47 3348.03 1140.19 3352.24 1139.09 3355.52 1141Z" fill="#000000" fill-rule="nonzero" fill-opacity="1"/><text fill="#000000" fill-opacity="1" font-family="Cambria Math,Cambria Math_MSFontService,sans-serif" font-style="normal" font-variant="normal" font-weight="400" font-stretch="normal" font-size="183" text-anchor="start" direction="ltr" writing-mode="lr-tb" unicode-bidi="normal" text-decoration="none" transform="matrix(1 0 0 1 3469.51 1238)">𝐸</text><path d="M-25.7344-103.206C-28.5937-103.206-30.9766-104.203-32.8828-106.199-34.7891-108.195-35.7422-110.711-35.7422-113.75-35.7422-116.788-34.7891-119.304-32.8828-121.3-30.9766-123.296-28.5937-124.293-25.7344-124.293-22.9346-124.293-20.5815-123.296-18.6753-121.3-16.769-119.304-15.8159-116.788-15.8159-113.75-15.8159-110.711-16.769-108.195-18.6753-106.199-20.5815-104.203-22.9346-103.206-25.7344-103.206Z" fill="#000000" fill-rule="nonzero" fill-opacity="1" transform="matrix(1 0 0 1 3565.83 1203)"/><text fill="#000000" fill-opacity="0" font-family="Arial,Arial_MSFontService,sans-serif" font-size="21.0879" direction="ltr" writing-mode="lr-tb" x="-35.7422" y="-105.842">ሶ</text><text fill="#000000" fill-opacity="1" font-family="Cambria Math,Cambria Math_MSFontService,sans-serif" font-style="normal" font-variant="normal" font-weight="400" font-stretch="normal" font-size="134" text-anchor="start" direction="ltr" writing-mode="lr-tb" unicode-bidi="normal" text-decoration="none" transform="matrix(1 0 0 1 3574.24 1275)">𝑜𝑢𝑡</text><text fill="#000000" fill-opacity="1" font-family="Cambria Math,Cambria Math_MSFontService,sans-serif" font-style="normal" font-variant="normal" font-weight="400" font-stretch="normal" font-size="183" text-anchor="start" direction="ltr" writing-mode="lr-tb" unicode-bidi="normal" text-decoration="none" transform="matrix(1 0 0 1 1908.06 1113)">𝑑</text><text fill="#000000" fill-opacity="1" font-family="Cambria Math,Cambria Math_MSFontService,sans-serif" font-style="normal" font-variant="normal" font-weight="400" font-stretch="normal" font-size="183" text-anchor="start" direction="ltr" writing-mode="lr-tb" unicode-bidi="normal" text-decoration="none" transform="matrix(1 0 0 1 2019.87 1113)">𝐸</text><text fill="#000000" fill-opacity="1" font-family="Cambria Math,Cambria Math_MSFontService,sans-serif" font-style="normal" font-variant="normal" font-weight="400" font-stretch="normal" font-size="134" text-anchor="start" direction="ltr" writing-mode="lr-tb" unicode-bidi="normal" text-decoration="none" transform="matrix(1 0 0 1 2124.6 1150)">𝑠𝑦𝑠</text><text fill="#000000" fill-opacity="1" font-family="Cambria Math,Cambria Math_MSFontService,sans-serif" font-style="normal" font-variant="normal" font-weight="400" font-stretch="normal" font-size="183" text-anchor="start" direction="ltr" writing-mode="lr-tb" unicode-bidi="normal" text-decoration="none" transform="matrix(1 0 0 1 2037.31 1380)">𝑑𝑡</text><path d="M1908.16 1199.64 2018.41 1199.64 2128.66 1199.64 2238.91 1199.64 2349.16 1199.64 2349.16 1211.64 2238.91 1211.64 2128.66 1211.64 2018.41 1211.64 1908.16 1211.64Z" fill="#000000" fill-rule="evenodd" fill-opacity="1"/><text fill="#000000" fill-opacity="1" font-family="Cambria Math,Cambria Math_MSFontService,sans-serif" font-style="normal" font-variant="normal" font-weight="400" font-stretch="normal" font-size="83" text-anchor="start" direction="ltr" writing-mode="lr-tb" unicode-bidi="normal" text-decoration="none" transform="matrix(1 0 0 1 1844.1 1697)">system boundary</text></g></g></svg>